<?xml version="1.0" encoding="utf-8"?>
<!-- Generator: Adobe Illustrator 19.0.0, SVG Export Plug-In . SVG Version: 6.00 Build 0)  -->
<svg version="1.1" id="图层_1" xmlns="http://www.w3.org/2000/svg" xmlns:xlink="http://www.w3.org/1999/xlink" x="0px" y="0px"
	 viewBox="0 0 250 50" style="enable-background:new 0 0 250 50;" xml:space="preserve">
<g id="XMLID_534_">
	<g id="XMLID_849_">
		<g id="XMLID_853_">
			<path id="XMLID_856_" d="M19.1,41.4c-5.6-5.6-5.6-14.6,0-20.1l2.5-2.5c3.5-3.5,3.5-9.1,0-12.6l-9.4,9.4C7,20.8,7,29.2,12.2,34.4
				L19.1,41.4z"/>
		</g>
		<g id="XMLID_851_">
			<path id="XMLID_852_" d="M24.1,8.6c5.6,5.6,5.6,14.6,0,20.1l-2.5,2.5c-3.5,3.5-3.5,9.1,0,12.6l9.4-9.4c5.2-5.2,5.2-13.7,0-18.9
				L24.1,8.6z"/>
		</g>
	</g>
	<g id="XMLID_882_">
		<polygon id="XMLID_893_" points="241.7,15.6 218,15.6 218,19.5 225.6,19.5 225.6,34.4 227.5,34.4 232.7,27.6 232.7,19.5 
			238.8,19.5 		"/>
		<polygon id="XMLID_892_" points="212.6,29.2 202.3,15.6 193.5,15.6 193.4,15.6 193.4,34.4 197.4,34.4 197.4,20.8 207.7,34.4 
			216.6,34.4 216.6,34.4 216.6,15.6 212.6,15.6 		"/>
		<path id="XMLID_891_" d="M185.5,15.6c-1.5,0-2.9,0.7-3.8,1.9l-12.8,17h8.9l10.3-13.7v13.7h0.8l3.2-4.2V15.6h0H185.5z"/>
		<polygon id="XMLID_890_" points="172.3,19.5 178.4,19.5 181.4,15.6 160.6,15.6 157.6,19.5 165.2,19.5 165.2,34.4 167.1,34.4 
			172.3,27.6 		"/>
		<path id="XMLID_889_" d="M152,23h-5.4c-0.7,0-1.2-0.5-1.2-1.2v0c0-1.3,1.1-2.4,2.4-2.4h8.1l3-3.9h-13c-4.1,0-7.5,3.3-7.5,7.5v0
			c0,2.2,1.8,3.9,3.9,3.9h5.4c0.7,0,1.2,0.5,1.2,1.2v0c0,1.3-1.1,2.4-2.4,2.4h-8l-3,3.9h13c4.1,0,7.5-3.3,7.5-7.5v0
			C156,24.8,154.2,23,152,23z"/>
		<polygon id="XMLID_888_" points="128.4,17.9 128.4,34.4 133.7,34.4 135.5,32.1 135.5,15.6 130.2,15.6 		"/>
		<path id="XMLID_887_" d="M107.1,27c0-2.2-1.8-3.9-3.9-3.9h-5.4c-0.7,0-1.2-0.5-1.2-1.2v0c0-1.3,1.1-2.4,2.4-2.4h8.1l3-3.9H97
			c-4.1,0-7.5,3.3-7.5,7.5v0c0,2.2,1.8,3.9,3.9,3.9h5.4c0.7,0,1.2,0.5,1.2,1.2v0c0,1.3-1.1,2.4-2.4,2.4h-8l-3,3.9h13
			C103.8,34.4,107.1,31.1,107.1,27L107.1,27z"/>
		<path id="XMLID_886_" d="M121.7,23h-5.4c-0.7,0-1.2-0.5-1.2-1.2v0c0-1.3,1.1-2.4,2.4-2.4h8.1l3-3.9h-13c-4.1,0-7.5,3.3-7.5,7.5v0
			c0,2.2,1.8,3.9,3.9,3.9h5.4c0.7,0,1.2,0.5,1.2,1.2v0c0,1.3-1.1,2.4-2.4,2.4h-8l-3,3.9h13c4.1,0,7.5-3.3,7.5-7.5v0
			C125.6,24.8,123.8,23,121.7,23z"/>
		<polygon id="XMLID_885_" points="71.8,23 64.2,23 64.2,27 68.8,27 		"/>
		<path id="XMLID_884_" d="M56.3,15.6c-1.5,0-2.9,0.7-3.8,1.9l-12.8,17h8.9l10.3-13.7v13.7h0.8l3.2-4.2V15.6h0H56.3z"/>
		<path id="XMLID_883_" d="M88.1,15.6L88.1,15.6h-6.5c-1.5,0-2.9,0.7-3.8,1.9l-12.8,17h8.9l10.3-13.7v13.7h0.8l3.2-4.2V15.6z"/>
	</g>
</g>
<g id="XMLID_1_">
</g>
<g id="XMLID_2_">
</g>
<g id="XMLID_3_">
</g>
<g id="XMLID_4_">
</g>
<g id="XMLID_5_">
</g>
<g id="XMLID_6_">
</g>
</svg>
